
<svg width="1092px" height="100px" viewBox="0 0 1092 100" version="1.1" xmlns="http://www.w3.org/2000/svg" xmlns:xlink="http://www.w3.org/1999/xlink">
    <g id="Pages" stroke="none" stroke-width="1" fill="none" fill-rule="evenodd">
        <g id="Artboard-Copy" transform="translate(1.000000, 0.000000)">
            <g id="Group" transform="translate(-0.953437, 0.000000)">
                <rect id="Rectangle" x="0.95343661" y="0" width="1091" height="100"></rect>
                <path d="M1.90687322,46.0440045 C3.28550527,44.9089087 4.57335518,43.9118594 5.78048666,43.0444139 L4.02981845,40.6081954 C2.76681617,41.5157896 1.42737757,42.5527788 5.68434189e-14,43.7280091 L1.90687322,46.0440045 Z M9.84109437,40.4415179 C11.4111762,39.5770264 12.8220549,38.9915949 14.1106719,38.6581001 L13.3590339,35.753786 C11.8117655,36.1542199 10.1720647,36.8345991 8.39412197,37.8135394 L9.84109437,40.4415179 Z M18.3881407,38.5070183 C19.6827859,38.7893183 20.9733873,39.3897326 22.4220453,40.3619815 L24.0938484,37.8709828 C22.3535709,36.703017 20.7278762,35.9467104 19.0272786,35.5758918 L18.3881407,38.5070183 Z M28.1852229,41.0839411 L26.2276044,43.3572052 L30.0039968,46.641749 L31.9556111,44.3633281 L28.1852229,41.0839411 Z M33.9172652,49.8332461 C35.2855871,50.8837639 36.6598675,51.8641198 38.0844236,52.7962428 L39.7270141,50.285885 C38.3677888,49.3965096 37.0545966,48.4597314 35.7441705,47.4536627 L33.9172652,49.8332461 Z M42.5111143,55.4396664 C43.9867231,56.2400312 45.5152015,56.99213 47.1070086,57.696664 L48.3211975,54.9533548 C46.8032382,54.2815058 45.3468432,53.5648762 43.9414512,52.8025968 L42.5111143,55.4396664 Z M51.8850417,59.5972269 C53.4493697,60.1534118 55.0683566,60.6679555 56.7463244,61.1400502 L57.5588263,58.252172 C55.9454924,57.798262 54.3907082,57.3041231 52.8900375,56.7705711 L51.8850417,59.5972269 Z M61.6719433,62.365314 C63.2859781,62.7170078 64.9488194,63.0329849 66.6627069,63.3124964 L67.1455863,60.3516135 C65.4835811,60.0805633 63.8726953,59.7744589 62.3106482,59.4340931 L61.6719433,62.365314 Z M71.6851185,64.0093839 C73.32223,64.1985708 75.0015146,64.3572243 76.7242856,64.4847813 L76.9458045,61.4929709 C75.2637897,61.3684316 73.625465,61.2136478 72.0295107,61.0292171 L71.6851185,64.0093839 Z M81.7812681,64.7646645 C83.4271538,64.8262337 85.1094279,64.8614982 86.8289292,64.8700432 L86.8438373,61.8700802 C85.1565398,61.8616953 83.5066766,61.8271102 81.8934135,61.7667613 L81.7812681,64.7646645 Z M91.918348,64.7418476 C93.6377618,64.6358736 95.3349556,64.4655133 97.0120216,64.2317274 L96.5978216,61.2604586 C94.9969713,61.4836199 93.3763837,61.6462907 91.7337969,61.7475295 L91.918348,64.7418476 Z M102.068939,63.3225178 C103.736026,62.9543118 105.384458,62.5214309 107.017261,62.0246457 L106.144025,59.1545484 C104.585418,59.6287594 103.012433,60.0418276 101.421929,60.393119 L102.068939,63.3225178 Z M111.855456,60.3496458 C113.428828,59.7383634 114.990319,59.0662839 116.544323,58.3334114 L115.264679,55.6200168 C113.773362,56.3233259 112.276254,56.967694 110.769019,57.5532813 L111.855456,60.3496458 Z M121.07242,56.0163758 C122.531824,55.2113593 123.98915,54.3516016 125.451033,53.4352769 L123.857726,50.8933537 C122.442322,51.7805454 121.033026,52.6119673 119.623425,53.3895122 L121.07242,56.0163758 Z M129.695194,50.6274527 C131.044346,49.6892177 132.404492,48.7011332 133.787303,47.6568843 L131.979401,45.2628311 C130.62705,46.2840776 129.298492,47.249215 127.982376,48.1644755 L129.695194,50.6274527 Z M137.78443,44.5356435 C139.039044,43.525725 140.323962,42.4650575 141.669821,41.3305428 L139.736257,39.0367834 C138.407013,40.1572923 137.139415,41.2036631 135.90328,42.1987062 L137.78443,44.5356435 Z M143.510723,35.8032223 L145.477615,38.0684669 L148.878326,35.0931461 C148.999101,34.9869029 149.122219,34.8785613 149.24788,34.7679478 L147.265671,32.5160934 L144.071454,35.3156125 C143.882854,35.4798608 143.696473,35.6419365 143.510723,35.8032223 Z M151.008879,29.2203075 L152.988686,31.4742736 L155.583472,29.2059362 C155.981626,28.8599907 156.367415,28.5259758 156.748027,28.1977042 L154.788667,25.9259407 L152.371284,28.0262153 C151.939046,28.4041038 151.48732,28.8000609 151.008879,29.2203075 Z M160.542519,24.9771507 C161.873431,23.8687619 163.148027,22.8325889 164.392333,21.8496422 L162.532702,19.4955459 C161.267209,20.4952291 159.972702,21.5475883 158.622686,22.6718865 L160.542519,24.9771507 Z M168.339171,18.8375482 C169.704587,17.8344582 171.046971,16.8910164 172.377179,16.0017185 L170.709844,13.5077267 C169.341793,14.4223241 167.963259,15.3911724 166.563025,16.4198416 L168.339171,18.8375482 Z M176.547707,13.3691089 C177.982496,12.518381 179.411628,11.7290596 180.841572,10.9995881 L179.478297,8.32723306 C177.990745,9.08609301 176.5061,9.90607403 175.017657,10.7886153 L176.547707,13.3691089 Z M185.273896,8.93296087 C186.787819,8.29382953 188.308526,7.72041522 189.840542,7.21283381 L188.897031,4.36506517 C187.288648,4.89794828 185.693516,5.4994257 184.107105,6.16915938 L185.273896,8.93296087 Z M194.562886,5.86684567 C196.139607,5.48971918 197.732223,5.180379 199.344037,4.93972239 L198.901024,1.97261275 C197.203234,2.22610627 195.525598,2.55196017 193.865018,2.94914437 L194.562886,5.86684567 Z M204.164551,4.42958249 C205.767943,4.32833138 207.392417,4.29271305 209.040292,4.32387017 L209.097004,1.32440626 C207.36732,1.29170232 205.660851,1.32911848 203.975483,1.43554618 L204.164551,4.42958249 Z M213.913571,4.60508319 C214.614996,4.67215189 215.320793,4.75085431 216.031095,4.84127964 C216.965219,4.96030167 217.876971,5.09545039 218.773712,5.24762274 L219.275621,2.28990615 C218.337846,2.13077061 217.385181,1.98955735 216.410115,1.86531865 C215.668677,1.77092965 214.931776,1.68875872 214.199123,1.61870401 L213.913571,4.60508319 Z M223.549677,6.25487599 C225.160847,6.66538272 226.71178,7.13686871 228.202205,7.66797798 L229.209221,4.84204109 C227.630585,4.2794981 225.990788,3.78099737 224.290377,3.34775308 L223.549677,6.25487599 Z M232.677823,9.52768629 C234.158517,10.238256 235.565951,11.0168212 236.899795,11.8612694 L238.504518,9.32653759 C237.071277,8.41916191 235.561386,7.58391991 233.975773,6.82300061 L232.677823,9.52768629 Z M240.793885,14.6840268 C242.038479,15.7145442 243.199431,16.8146331 244.276254,17.9811646 L246.480641,15.9462992 C245.313048,14.681436 244.054839,13.4891886 242.707148,12.3733076 L240.793885,14.6840268 Z M247.30212,21.7463538 C248.215711,23.0574678 249.041371,24.4310725 249.778433,25.8626492 L252.445673,24.4893934 C251.648019,22.9401297 250.75369,21.4522841 249.763505,20.0312485 L247.30212,21.7463538 Z M251.719849,30.3182018 C252.262212,31.8142647 252.719191,33.3573317 253.090401,34.941454 L256.011278,34.2569987 C255.613465,32.5593525 255.123062,30.9034221 254.540233,29.2957373 L251.719849,30.3182018 Z M253.926107,39.6460591 C254.122174,41.2330007 254.238612,42.848134 254.275812,44.4844456 L257.275037,44.4162626 C257.235579,42.6806049 257.111932,40.9654787 256.903468,39.2782043 L253.926107,39.6460591 Z M254.155779,49.3689197 C254.041891,50.9756311 253.855295,52.5909465 253.5974,54.207237 L256.559925,54.6799371 C256.831523,52.9777637 257.028161,51.2755204 257.14827,49.5810344 L254.155779,49.3689197 Z M252.618357,59.022362 C252.228795,60.5976591 251.773413,62.1620487 251.254708,63.7076977 L254.098827,64.6621559 C254.643366,63.0395242 255.121497,61.3969845 255.530629,59.742549 L252.618357,59.022362 Z M249.506118,68.2922198 C248.862751,69.7928212 248.160319,71.2625545 247.402366,72.6937933 L250.053547,74.0978016 C250.849971,72.5939186 251.58778,71.050165 252.263386,69.474369 L249.506118,68.2922198 Z M244.933875,76.913552 C244.046817,78.2906571 243.107751,79.6156732 242.121116,80.8816053 L244.487341,82.7257798 C245.529547,81.388546 246.520556,79.9902381 247.45593,78.5381265 L244.933875,76.913552 Z M238.953586,84.5684998 C237.826303,85.7572242 236.654899,86.8708083 235.44443,87.9032819 L237.391285,90.1857702 C238.683008,89.0839908 239.931074,87.8975297 241.130417,86.6328166 L238.953586,84.5684998 Z M231.609755,90.8126586 C230.257296,91.7179771 228.870231,92.5249143 227.453656,93.2289047 L228.788773,95.9154381 C230.321844,95.1535532 231.820229,94.2818549 233.278548,93.3056751 L231.609755,90.8126586 Z M223.073577,95.0432624 C221.552548,95.5513261 220.007745,95.943838 218.443359,96.2176841 L218.960644,99.1727503 C220.672931,98.873014 222.362465,98.4437281 224.024035,97.8887203 L223.073577,95.0432624 Z M213.651466,96.6810428 C212.074207,96.7118325 210.483398,96.6243093 208.881883,96.4163509 L208.495573,99.3913744 C210.244409,99.6184625 211.983913,99.7141667 213.710018,99.6804713 L213.651466,96.6810428 Z M204.141159,95.4547625 C202.629284,95.0381829 201.111845,94.5152088 199.590729,93.8844887 L198.441663,96.6557064 C200.076698,97.333662 201.711682,97.8971473 203.344242,98.3469801 L204.141159,95.4547625 Z M195.517043,91.5833775 C194.284094,90.6896419 193.099626,89.640309 191.98542,88.455029 L189.799576,90.5098002 C191.041243,91.8306727 192.367493,93.0056109 193.756337,94.0123515 L195.517043,91.5833775 Z M189.008585,84.7100353 C188.129999,83.404301 187.336577,82.0129633 186.641226,80.5561966 L183.933838,81.8485001 C184.692279,83.4374404 185.558617,84.9566439 186.519579,86.3848045 L189.008585,84.7100353 Z M184.89383,76.1116332 C184.415519,74.5878678 184.044642,73.030346 183.78736,71.4554117 L180.826606,71.9390817 C181.106946,73.6551657 181.510822,75.3512685 182.031534,77.0101101 L184.89383,76.1116332 Z M183.361248,66.6311517 C183.340046,65.0344687 183.438597,63.4429796 183.659189,61.8680153 L180.688188,61.4518926 C180.446288,63.1789931 180.3383,64.9228881 180.361512,66.6709834 L183.361248,66.6311517 Z M184.667048,57.2769962 C185.124097,55.7644287 185.700928,54.2821656 186.398442,52.8370613 L183.696698,51.5330002 C182.931036,53.1192923 182.297426,54.7474563 181.795288,56.4092435 L184.667048,57.2769962 Z M188.815587,48.6759082 C189.702213,47.3834067 190.696322,46.1322641 191.798498,44.9264018 L189.584113,42.9024208 C188.388311,44.2107162 187.307439,45.5710548 186.341703,46.9788813 L188.815587,48.6759082 Z M195.307535,41.5521837 C196.503829,40.5362946 197.788839,39.5626128 199.162908,38.6334016 L197.48236,36.1482947 C196.018354,37.1383251 194.646067,38.1781384 193.365656,39.2654602 L195.307535,41.5521837 Z M203.348099,36.0924962 C204.289412,35.579368 205.263325,35.0839145 206.269894,34.6065532 C206.747283,34.3801535 207.22463,34.1635443 207.701982,33.956654 L206.508976,31.2040668 C206.000477,31.4244565 205.492295,31.6550577 204.984391,31.8959292 C203.927309,32.3972461 202.903251,32.9182097 201.912223,33.4584385 L203.348099,36.0924962 Z M212.236461,32.2819224 C213.793978,31.8057945 215.353791,31.4303054 216.918124,31.1531071 L216.394682,28.1991254 C214.710673,28.4975301 213.032789,28.9014421 211.359435,29.412981 L212.236461,32.2819224 Z M221.71904,30.6093419 C223.314922,30.529144 224.919203,30.5472263 226.535012,30.6616766 L226.746976,27.6691741 C225.011509,27.5462483 223.286199,27.5268018 221.568471,27.6131228 L221.71904,30.6093419 Z M231.328019,31.275243 C232.886652,31.5618022 234.459635,31.9337866 236.050758,32.3902042 L236.877956,29.506501 C235.194581,29.0236205 233.526717,28.6291984 231.870485,28.3246955 L231.328019,31.275243 Z M240.703335,33.9435925 C242.187198,34.5065065 243.69026,35.1390264 245.217447,35.8414684 L246.471069,33.1159536 C244.882912,32.3854679 243.316789,31.7264104 241.767413,31.1386435 L240.703335,33.9435925 Z M249.660972,38.044415 C251.068451,38.7903796 252.500522,39.5930201 253.964542,40.454859 L255.486456,37.8695587 C253.98485,36.9855936 252.513886,36.1611544 251.065854,35.3936966 L249.660972,38.044415 Z M258.147735,43.0212217 C259.491608,43.877043 260.868329,44.7820609 262.291514,45.7437615 L263.971193,43.2580667 C262.526154,42.2815992 261.126804,41.3617052 259.759205,40.4907742 L258.147735,43.0212217 Z M268.105526,46.1161398 L266.376176,48.5675367 L267.680656,49.492889 C268.563089,50.1221839 269.473052,50.777611 270.422369,51.4672434 L272.185579,49.0400863 L270.778763,48.0224171 C269.858474,47.3596684 268.971375,46.7269572 268.105526,46.1161398 Z M276.235505,52.0105129 L274.452385,54.4230804 L278.465657,57.401062 L280.255858,54.9937436 L276.235505,52.0105129 Z M284.277602,57.980523 L282.492484,60.3916128 L284.598278,61.9460729 C285.26556,62.4369535 285.903492,62.9044078 286.527974,63.3599753 L288.296037,60.9363508 L285.871121,59.1577732 C285.36098,58.7818126 284.832033,58.3910118 284.277602,57.980523 Z M292.355722,63.8630505 L290.617157,66.3079211 L292.297939,67.4952131 C293.126327,68.0763115 293.937764,68.6392614 294.736988,69.1870923 L296.433134,66.7126051 L294.834417,65.6079167 C294.02535,65.0445277 293.200678,64.4639052 292.355722,63.8630505 Z M298.913816,71.9838709 C300.361446,72.9286409 301.778398,73.8262449 303.173907,74.6811643 L304.74107,72.1230403 C303.370585,71.2834506 301.977709,70.4010985 300.553427,69.4715663 L298.913816,71.9838709 Z M307.502004,77.2334615 C309.005126,78.083927 310.488797,78.8844534 311.958373,79.6364757 L313.325011,76.9658387 C311.89353,76.2333112 310.446685,75.4526541 308.979327,74.622424 L307.502004,77.2334615 Z M316.547695,81.8465199 C318.123936,82.556653 319.687728,83.209404 321.242712,83.8047312 L322.315342,81.0030416 C320.815136,80.4286861 319.304502,79.7981244 317.779979,79.1112912 L316.547695,81.8465199 Z M326.085439,85.480371 C327.737332,85.9899105 329.381998,86.4325929 331.022065,86.8074978 L331.690595,83.8829349 C330.124099,83.5248477 328.551326,83.1015164 326.969701,82.6136516 L326.085439,85.480371 Z M336.037384,87.743189 C336.436218,87.8006312 336.834881,87.8539541 337.233396,87.9031405 C338.624884,88.0747591 339.906224,88.1976849 341.134669,88.2740688 L341.320848,85.2798514 C340.156449,85.2074498 338.93477,85.0902477 337.600749,84.9257167 C337.222493,84.8790309 336.843891,84.8283911 336.465046,84.773828 L336.037384,87.743189 Z M346.321814,88.3024818 C348.05128,88.2034866 349.756287,87.9889052 351.486575,87.6476101 L350.906018,84.7043204 C349.311515,85.0188322 347.7432,85.2162106 346.150374,85.3073845 L346.321814,88.3024818 Z M356.517628,86.3237635 C358.055196,85.8226162 359.647557,85.220255 361.317275,84.5075399 L360.139536,81.7483858 C358.549022,82.427293 357.039115,82.9984634 355.587958,83.4714461 L356.517628,86.3237635 Z M365.920461,82.3632395 C367.343129,81.6499622 368.830882,80.8615153 370.395129,79.9919344 L368.93749,77.3698572 C367.409463,78.2193032 365.959248,78.9878565 364.575891,79.6814248 L365.920461,82.3632395 Z M374.77289,77.4663521 C376.142032,76.6503015 377.570753,75.7764274 379.066093,74.8405601 L377.474531,72.2975438 L376.019264,73.2016457 C375.063669,73.7907911 374.136902,74.3529609 373.236931,74.8893714 L374.77289,77.4663521 Z M383.306907,72.1364535 C384.649866,71.2656187 386.045812,70.3477949 387.499903,69.3797056 L385.837353,66.8825215 L384.131956,68.0124078 C383.292946,68.5654753 382.474224,69.1008846 381.674695,69.6193355 L383.306907,72.1364535 Z M391.640359,66.2729631 C392.92605,65.1933643 394.188314,64.0236973 395.41447,62.7767424 L393.275385,60.6733367 C392.115258,61.853142 390.922922,62.9580109 389.711183,63.9755127 L391.640359,66.2729631 Z M398.85248,58.9615059 C399.938519,57.6479036 400.975087,56.282699 401.951812,54.8792003 L399.489409,53.1655589 C398.56002,54.5010361 397.573592,55.8002059 396.540364,57.0499308 L398.85248,58.9615059 Z M404.719293,50.5200423 C405.586853,49.013957 406.376569,47.4883829 407.080241,45.9567596 L404.354179,44.7043281 C403.689338,46.1514302 402.941899,47.5953334 402.119739,49.0226043 L404.719293,50.5200423 Z M408.98324,41.1860088 C409.554025,39.4956507 410.007755,37.8208223 410.33792,36.1750044 L407.396522,35.584936 C407.092041,37.102727 406.671678,38.6543884 406.140911,40.2262361 L408.98324,41.1860088 Z M410.969158,30.9064643 C411.031266,29.0681594 410.913931,27.2956106 410.611408,25.6034174 L407.658229,26.1313741 C407.922626,27.6103055 408.026032,29.1724196 407.970869,30.8051653 L410.969158,30.9064643 Z M409.017254,20.5098375 C408.250172,18.8657091 407.259386,17.34732 406.04473,15.9688997 L403.793923,17.9522983 C404.818447,19.1149514 405.652005,20.3923881 406.298593,21.7782533 L409.017254,20.5098375 Z M401.91569,12.3907978 C400.901068,11.7150448 399.8038,11.0991193 398.624203,10.5445022 C398.144559,10.319744 397.670271,10.1167294 397.168186,9.92070761 L396.077143,12.715278 C396.51845,12.8875712 396.932083,13.0646231 397.349493,13.2602177 C398.39508,13.7518279 399.36311,14.2952089 400.252717,14.8877002 L401.91569,12.3907978 Z M392.145984,8.42658424 C390.527073,8.06720502 388.812644,7.78618737 387.049514,7.5925391 L386.721987,10.5746066 C388.378095,10.7565004 389.984878,11.0198733 391.495846,11.3552904 L392.145984,8.42658424 Z M381.898207,7.28403323 C380.161197,7.26586575 378.434559,7.33491919 376.746601,7.49323244 L377.026741,10.4801241 C378.609557,10.331672 380.232303,10.2667735 381.866832,10.2838692 L381.898207,7.28403323 Z M371.630975,8.27990749 C369.859692,8.66816113 368.180872,9.16858106 366.615177,9.78190017 L367.709389,12.5752314 C369.123478,12.0213002 370.651557,11.5658126 372.273306,11.210336 L371.630975,8.27990749 Z M361.830683,12.2540805 C360.268724,13.3038389 358.913524,14.5149855 357.787339,15.8872781 L360.106393,17.790431 C361.041474,16.651004 362.178222,15.6350886 363.5041,14.7439951 L361.830683,12.2540805 Z M355.064581,20.6393501 C354.458226,22.2860373 354.096598,24.0659859 353.988178,25.9743971 L356.983348,26.1445576 C357.075186,24.5280252 357.377486,23.040093 357.879787,21.6759856 L355.064581,20.6393501 Z M354.095336,31.1913921 C354.22554,32.9690814 354.445033,34.6774239 354.752559,36.3171286 L357.701149,35.7641218 C357.414605,34.2362901 357.209426,32.6393561 357.087322,30.9722498 L354.095336,31.1913921 Z M356.047266,41.36564 C356.610756,43.0639823 357.285959,44.6725942 358.070408,46.1922012 L360.736173,44.8160843 C360.023885,43.4362652 359.40924,41.9719278 358.894633,40.4209168 L356.047266,41.36564 Z M360.86609,50.6403293 C361.925342,52.0422124 363.099991,53.3434268 364.385913,54.5454291 L366.434515,52.3538012 C365.273468,51.2685252 364.214365,50.0953066 363.259649,48.8317736 L360.86609,50.6403293 Z M368.532029,57.8272658 C369.94898,58.7765591 371.458461,59.636793 373.056606,60.4102393 L374.363494,57.7098612 C372.888811,56.9961658 371.500602,56.2050434 370.201799,55.3349041 L368.532029,57.8272658 Z M377.854058,62.3833108 C379.436431,62.9308171 381.08455,63.4090137 382.795273,63.8199218 L383.495932,60.9028895 C381.878027,60.5142758 380.323342,60.0631889 378.835008,59.5482205 L377.854058,62.3833108 Z M387.815503,64.8068623 C389.459942,65.0636198 391.149364,65.2666395 392.880823,65.4176363 L393.141458,62.4289794 C391.476366,62.2837705 389.854279,62.0888424 388.278305,61.842775 L387.815503,64.8068623 Z M397.990025,65.710247 C399.65424,65.7583569 401.347028,65.7635382 403.065145,65.7274448 L403.002136,62.7281066 C401.333061,62.7631697 399.690125,62.758141 398.076714,62.7114998 L397.990025,65.710247 Z M408.162028,65.5053492 C409.830788,65.3963458 411.512528,65.2521078 413.202867,65.0745649 L412.889489,62.0909774 C411.237763,62.2644647 409.595268,62.4053368 407.966485,62.5117288 L408.162028,65.5053492 Z M418.29333,64.3250287 C420.041782,63.9414892 421.710734,63.4213185 423.313758,62.7675085 L422.180788,59.9896713 C420.736008,60.5789399 419.231015,61.0480088 417.650535,61.394702 L418.29333,64.3250287 Z M428.004633,60.3673726 C429.444238,59.4729875 430.836526,58.456112 432.216641,57.3046509 L430.294744,55.0011077 C429.018038,56.0662924 427.737884,57.0012692 426.421475,57.8191164 L428.004633,60.3673726 Z M433.873447,51.6846943 L436.007071,53.7936392 L436.592376,53.1949402 C437.474569,52.282786 438.386439,51.2964019 439.471288,50.0906094 L437.241071,48.0840877 L436.557703,48.8395848 C435.566646,49.9287456 434.71826,50.8299951 433.873447,51.6846943 Z M440.591923,44.3383882 L442.816402,46.3512696 L443.561642,45.5337065 C444.523304,44.4872655 445.366041,43.6064725 446.198312,42.7842371 L444.089897,40.650089 C443.003918,41.7229737 441.911244,42.8803773 440.591923,44.3383882 Z M449.793401,39.5826825 C451.09607,38.5602362 452.402757,37.6921099 453.749508,36.966369 L452.326347,34.3254202 C450.822605,35.1357603 449.373816,36.0982952 447.941146,37.2227776 L449.793401,39.5826825 Z M458.102693,35.1642735 C459.568342,34.7297954 461.103015,34.4371208 462.724262,34.2905642 L462.454171,31.3027472 C460.636252,31.4670825 458.906423,31.7969747 457.250046,32.2879923 L458.102693,35.1642735 Z M467.524576,34.2687439 C468.704665,34.3560065 469.927754,34.5088427 471.196902,34.7291418 C471.552419,34.7908525 471.905035,34.8595699 472.254843,34.9352452 L472.889171,32.0030739 C472.499117,31.918692 472.106073,31.842096 471.709971,31.7733406 C470.345601,31.5365131 469.025223,31.3715196 467.745809,31.2769124 L467.524576,34.2687439 Z M476.769083,36.3559421 C478.210788,36.9593361 479.607391,37.694714 480.969982,38.560781 L482.579238,36.0289248 C481.07599,35.0734561 479.529008,34.2588962 477.927317,33.5885436 L476.769083,36.3559421 Z M484.834844,41.4365838 C486.01178,42.4425856 487.171773,43.5544633 488.335189,44.7830177 L490.513469,42.7202294 C489.280273,41.4179885 488.044647,40.2336139 486.784087,39.1561346 L484.834844,41.4365838 Z M491.566991,48.4725112 C492.527572,49.6458548 493.503264,50.8986808 494.605709,52.3639247 L497.002948,50.5602492 C495.877639,49.0646174 494.877681,47.7806327 493.888307,46.5721193 L491.566991,48.4725112 Z M499.991761,54.5964826 L497.576907,56.3765062 L498.746165,57.9550669 C499.449857,58.8988443 500.02487,59.6553421 500.60889,60.4040392 L502.974341,58.5588718 L502.284301,57.6649259 C501.638465,56.819692 500.934253,55.8751067 499.991761,54.5964826 Z M503.890771,64.3209999 C505.199656,65.74484 506.463671,66.930665 507.738826,67.9071867 L509.56283,65.5253788 C508.437534,64.6636203 507.297781,63.5943705 506.099374,62.2907111 L503.890771,64.3209999 Z M512.547457,70.5514661 C514.347499,71.1595915 516.209545,71.3735589 518.15097,71.1738329 L517.843962,68.1895831 C516.33309,68.3450156 514.903005,68.1806848 513.507659,67.7092819 L512.547457,70.5514661 Z M523.461782,69.6751253 C524.934329,69.0121379 526.454676,68.1356147 528.032271,67.0382241 L526.319149,64.5754593 C524.88762,65.5712444 523.526688,66.3558604 522.230161,66.939598 L523.461782,69.6751253 Z M532.071018,63.8563962 C533.272219,62.8058992 534.50892,61.6370699 535.784013,60.3463758 L533.649833,58.2379934 C532.424559,59.4782592 531.240682,60.5971633 530.096094,61.5981506 L532.071018,63.8563962 Z M539.76457,56.8919133 L543.472986,53.538162 L541.460736,51.3131122 L537.752319,54.6668635 L539.76457,56.8919133 Z M547.181403,50.1844107 L550.889819,46.8306594 L548.877568,44.6056096 L545.169152,47.9593609 L547.181403,50.1844107 Z M554.598236,43.4769081 L558.306652,40.1231568 L556.294401,37.898107 L552.585985,41.2518583 L554.598236,43.4769081 Z M561.968758,36.6157515 C563.19776,35.3826586 564.392984,34.3108015 565.554884,33.396261 L563.699389,31.0389028 C562.439561,32.0305231 561.155135,33.1823748 559.843916,34.497959 L561.968758,36.6157515 Z M569.503469,30.8234218 C570.998571,30.0644012 572.42147,29.6016379 573.77989,29.4166033 L573.374989,26.444053 C571.671766,26.6760543 569.929483,27.2426897 568.145436,28.1483988 L569.503469,30.8234218 Z M578.080255,29.7964722 C579.400649,30.2287744 580.692803,30.9585083 581.966721,31.9841771 L583.848105,29.6474282 C582.303927,28.4041661 580.69633,27.496288 579.013711,26.9453916 L578.080255,29.7964722 Z M585.273767,35.355927 C586.205077,36.5077286 587.126659,37.8198527 588.046165,39.2946856 L590.591915,37.7075008 C589.610607,36.1335416 588.619337,34.722197 587.606593,33.4696803 L585.273767,35.355927 Z M590.448151,43.5177461 C591.163529,44.8828804 591.883413,46.3489624 592.623316,47.9400917 L595.343582,46.6751206 C594.584627,45.043019 593.844081,43.5348584 593.105399,42.1252544 L590.448151,43.5177461 Z M597.413183,51.3155087 L594.657607,52.5015958 L595.566962,54.6396646 C595.883655,55.3923533 596.21921,56.1973091 596.589483,57.0913365 L599.361171,55.9434072 L598.141649,53.0243112 C597.891649,52.4325788 597.651558,51.8693135 597.413183,51.3155087 Z M601.280704,60.5928272 L598.509272,61.7413763 L599.287171,63.6078116 C599.711995,64.6201014 600.09286,65.5140368 600.464965,66.370772 L603.216631,65.1756434 L602.736652,64.0612355 C602.300491,63.0404648 601.832472,61.9242337 601.280704,60.5928272 Z M602.527488,70.8960656 C603.36299,72.6224521 604.159855,74.1206467 604.946461,75.4272762 L607.516656,73.8799904 C606.781488,72.6588033 606.026277,71.2389237 605.227872,69.589189 L602.527488,70.8960656 Z M608.151603,79.7304619 C609.127543,80.7215433 610.132254,81.4496474 611.187612,81.8972296 C611.813883,82.1602747 612.411007,82.3949362 613.001751,82.6104874 L614.030077,79.7922351 C613.484874,79.593301 612.932172,79.3760968 612.354127,79.1333166 C611.697471,78.8548159 611.006854,78.354333 610.28919,77.6255336 L608.151603,79.7304619 Z M618.078676,84.013895 C619.958165,84.3528009 621.744032,84.4569244 623.444588,84.3308044 L623.222705,81.339021 C621.780583,81.4459745 620.247483,81.3565884 618.611045,81.0615089 L618.078676,84.013895 Z M628.804818,83.0638007 C630.4457,82.3805106 631.986897,81.4379533 633.448198,80.2430649 L631.549173,77.9206305 C630.306933,78.9363947 629.014705,79.7266893 627.651563,80.2943237 L628.804818,83.0638007 Z M637.179277,76.4535881 C638.200085,75.2025868 639.192379,73.8026269 640.182672,72.2320019 L637.64498,70.6319645 C636.716497,72.104558 635.793856,73.4062494 634.854913,74.5569238 L637.179277,76.4535881 Z M642.729913,67.8269011 C643.453117,66.4798996 644.192636,65.0298448 645.030255,63.3281897 L642.338668,62.0032889 L641.803685,63.0823589 C641.194622,64.3013489 640.634795,65.3870967 640.086778,66.4078039 L642.729913,67.8269011 Z M644.503032,57.5310272 L647.207151,58.8301592 L649.056357,55.0126789 C649.16541,54.7909732 649.273835,54.5713887 649.384401,54.3482673 L646.696345,53.0162184 L645.549424,55.359595 C645.250932,55.9760359 644.913949,56.675712 644.503032,57.5310272 Z M651.666768,49.9113998 C652.492855,48.3769718 653.298846,46.9668915 654.109615,45.6466012 L651.553157,44.076721 C650.710908,45.4482751 649.877023,46.9071551 649.025251,48.4892924 L651.666768,49.9113998 Z M656.82982,41.587237 C657.828145,40.2328749 658.848841,38.9952858 659.903626,37.8681235 L657.713145,35.8182967 C656.575401,37.03411 655.480516,38.3616519 654.414971,39.8072082 L656.82982,41.587237 Z M663.400726,34.6402976 C664.665227,33.6466037 665.982705,32.7878514 667.362598,32.0644516 L665.969673,29.4074309 C664.424475,30.2174906 662.953285,31.1764349 661.54708,32.2814852 L663.400726,34.6402976 Z M671.74455,30.2882023 C673.219705,29.8517064 674.763899,29.5447418 676.383945,29.3707784 L676.063641,26.3879265 C674.264875,26.5810812 672.542975,26.9233712 670.893337,27.4114963 L671.74455,30.2882023 Z M681.040116,29.2734505 C682.526197,29.4263396 683.977945,29.8214846 685.417929,30.4548113 L686.62572,27.7086792 C684.906157,26.9523892 683.151733,26.4748603 681.347138,26.2892023 L681.040116,29.2734505 Z M689.435139,32.8464524 C690.618619,33.731379 691.812442,34.7782531 693.042396,35.9998381 L695.156463,33.8712889 C693.832083,32.5559206 692.534226,31.417818 691.23165,30.4438396 L689.435139,32.8464524 Z M698.637971,37.6485335 L696.359661,39.6002765 L697.011501,40.3698953 C697.78139,41.2888977 698.589046,42.2873184 699.485211,43.4231154 L701.84038,41.564843 L701.077071,40.6039058 C700.208749,39.5187012 699.413165,38.5534339 698.637971,37.6485335 Z M704.931149,45.5444396 L702.555888,47.3769611 L704.983952,50.5020925 C705.205983,50.7842206 705.42272,51.0581622 705.644785,51.3374333 L707.992925,49.470286 L706.654247,47.7691768 C706.172027,47.150596 705.625737,46.4447438 704.931149,45.5444396 Z M708.84613,55.218903 C710.030753,56.5915824 711.171955,57.8332331 712.305225,58.9731921 L714.432778,56.858123 C713.352264,55.7712308 712.258155,54.580818 711.117312,53.2588701 L708.84613,55.218903 Z M716.136248,62.4532299 C717.554665,63.5992531 718.983223,64.5922928 720.438826,65.4330584 L721.939325,62.83527 C720.624045,62.0755562 719.322959,61.1711266 718.021637,60.119711 L716.136248,62.4532299 Z M725.30589,67.6314609 C727.007277,68.1913092 728.75043,68.5526113 730.543014,68.7080638 L730.802201,65.719281 C729.242623,65.5840348 727.726977,65.269888 726.243592,64.7817738 L725.30589,67.6314609 Z M735.902665,68.571623 C737.572792,68.3494717 739.282292,67.9612221 741.03501,67.4027722 L740.124263,64.5443565 C738.536798,65.0501537 736.999383,65.3993205 735.507105,65.5978153 L735.902665,68.571623 Z M745.830726,65.4992957 C747.511234,64.7056652 749.02333,63.8022011 750.38315,62.7861725 L748.587492,60.3829222 C747.390794,61.2770696 746.051239,62.0774419 744.549631,62.7865855 L745.830726,65.4992957 Z M754.269878,59.1051235 C755.386133,57.7648325 756.35161,56.2953118 757.203606,54.6702606 L754.546634,53.2772412 C753.789775,54.720835 752.940334,56.0137406 751.964661,57.1852347 L754.269878,59.1051235 Z M759.272409,49.8489185 C759.778882,48.4194728 760.244802,46.9088351 760.788586,44.9818375 L757.901343,44.1670798 L757.620816,45.1473222 C757.209817,46.5615127 756.838311,47.7359817 756.444659,48.8470064 L759.272409,49.8489185 Z M759.237117,39.3375917 L762.124704,40.1511267 L762.426331,39.0952757 C762.819803,37.7386995 763.182839,36.5743598 763.567611,35.4502846 L760.729289,34.4787248 L760.432318,35.3663862 C760.040386,36.5649101 759.660056,37.8363974 759.237117,39.3375917 Z M765.352454,30.9495872 C766.040481,29.4600703 766.798572,28.0657687 767.649203,26.7436244 L765.126259,25.1204322 C764.197983,26.5632599 763.37364,28.0794146 762.628964,29.691573 L765.352454,30.9495872 Z M770.521905,22.9549838 C771.557564,21.789933 772.698415,20.6858383 773.957009,19.6385785 L772.038152,17.3325022 C770.664134,18.4758049 769.415204,19.684497 768.279733,20.9618294 L770.521905,22.9549838 Z M777.885027,16.7983586 C778.407033,16.4695506 778.944604,16.147576 779.498145,15.8324095 L779.760983,15.6871921 C780.298285,15.3975533 781.131597,14.985051 782.114567,14.5466022 L780.892491,11.8067973 L780.330999,12.061476 C779.332279,12.5221052 778.511176,12.9423124 778.01407,13.2252037 C777.421733,13.5624595 776.845963,13.9073126 776.286107,14.2599625 L777.885027,16.7983586 Z M786.63814,12.7977064 C788.17518,12.2907041 789.735543,11.8629094 791.304375,11.5310674 L790.683546,8.59600837 C789.002657,8.95155273 787.336516,9.4083479 785.698377,9.94869876 L786.63814,12.7977064 Z M796.057013,10.8417877 C797.683636,10.7204008 799.269306,10.7270637 800.804843,10.8716746 L801.086127,7.88489047 C799.37701,7.72393253 797.623276,7.71656345 795.833758,7.85010631 L796.057013,10.8417877 Z M805.446141,11.7911496 C806.937433,12.2592853 808.352124,12.8895502 809.685405,13.6908916 L811.230838,11.1195815 C809.691023,10.1941069 808.05902,9.46702621 806.34465,8.9288634 L805.446141,11.7911496 Z M813.336123,16.5203712 C814.412629,17.5722608 815.413904,18.7753045 816.336123,20.1363106 L818.819671,18.4534465 C817.785534,16.927286 816.655027,15.5689692 815.432769,14.3746604 L813.336123,16.5203712 Z M818.693251,24.3342817 C819.336642,25.7185989 819.920383,27.214016 820.442198,28.8232376 L823.295916,27.8978764 C822.737254,26.1750199 822.109331,24.5664205 821.413772,23.06986 L818.693251,24.3342817 Z M821.709975,33.4966369 C822.050973,35.0196952 822.346457,36.6222307 822.59531,38.3054682 L825.563052,37.8667124 C825.303619,36.1119071 824.994819,34.4371519 824.637498,32.8411916 L821.709975,33.4966369 Z M826.232525,42.8259055 L823.259389,43.226482 L823.919154,48.1777047 L826.893789,47.7884127 L826.232525,42.8259055 Z M827.524421,52.7603039 L824.546438,53.1230992 L824.824532,55.4694928 C824.931012,56.3971337 825.025628,57.2619302 825.107927,58.0626996 L828.092208,57.7559907 L827.928755,56.2258195 C827.811059,55.1604436 827.676031,54.0047867 827.524421,52.7603039 Z M828.480494,62.860143 L825.481328,62.9308564 L825.485922,63.2653311 C825.486736,63.5745205 825.476498,63.8061503 825.457781,63.9448849 C825.291743,65.1747773 825.081898,66.3669347 824.829252,67.5209851 L827.759847,68.1625548 C828.030023,66.9284297 828.253972,65.6561473 828.430828,64.346118 C828.481447,63.9709171 828.495198,63.4837723 828.480494,62.860143 Z M823.514531,72.155368 C822.964756,73.7055322 822.325355,75.1661224 821.60098,76.535174 L824.252678,77.938206 C825.045816,76.4391936 825.743795,74.8447935 826.341977,73.1581384 L823.514531,72.155368 Z M819.025241,80.5655674 C818.045662,81.8433836 816.974933,83.0036373 815.82266,84.0427192 L817.831728,86.2706435 C819.120146,85.1087908 820.315303,83.8137051 821.406132,82.3907675 L819.025241,80.5655674 Z M812.047497,86.8419428 C810.690673,87.6572406 809.266652,88.330568 807.794751,88.8574966 L808.805887,91.6819619 C810.462991,91.088732 812.065942,90.3308002 813.592661,89.4134147 L812.047497,86.8419428 Z M803.179588,90.0041323 C801.614127,90.2294928 800.039663,90.2954252 798.487787,90.2030729 L798.309572,93.1977747 C800.063762,93.3021669 801.841156,93.2277367 803.607055,92.9735214 L803.179588,90.0041323 Z M793.925785,89.449607 C792.396963,89.0250967 790.950678,88.4363569 789.622389,87.6972799 L788.163743,90.3187968 C789.701733,91.1745543 791.368353,91.8529859 793.123138,92.3402399 L793.925785,89.449607 Z M785.891493,84.9110711 C784.798253,83.8257998 783.884156,82.6034396 783.17035,81.2625183 L780.522183,82.6722042 C781.378615,84.2810538 782.473582,85.7452806 783.777947,87.0401373 L785.891493,84.9110711 Z M781.644336,76.8791151 C781.37148,75.423447 781.288756,73.8839514 781.404993,72.2699556 L778.412743,72.0544587 C778.278219,73.9223709 778.374812,75.7199605 778.695689,77.4318204 L781.644336,76.8791151 Z M782.227755,67.6710829 C782.634036,66.2182209 783.182929,64.724902 783.877211,63.1955148 L781.14551,61.955429 C780.388887,63.6221431 779.787016,65.2595945 779.338594,66.863154 L782.227755,67.6710829 Z M786.063652,59.054295 C786.248167,58.7467848 786.438142,58.4381995 786.633589,58.1285645 C787.310166,57.0570806 788.031969,56.0648832 788.802663,55.144428 L786.502489,53.2185 C785.645036,54.2425733 784.844396,55.3431409 784.096836,56.5270393 C783.889234,56.8559299 783.687402,57.1837756 783.491206,57.5107538 L786.063652,59.054295 Z M792.17648,51.8174337 C793.398925,50.8283594 794.710145,49.9687016 796.10936,49.2355462 L794.716991,46.5782339 C793.143593,47.4026576 791.666589,48.371005 790.289489,49.4852104 L792.17648,51.8174337 Z M800.523805,47.4272199 C801.999319,46.9720027 803.551589,46.6259153 805.179096,46.3873458 L804.743988,43.4190667 C802.967217,43.6795163 801.264867,44.0590647 799.639395,44.560546 L800.523805,47.4272199 Z M809.939857,45.9989631 C811.499931,45.9647078 813.115934,46.0132713 814.78621,46.1432709 L815.018999,43.1523164 C813.251454,43.0147461 811.535976,42.9631932 809.874001,42.9996861 L809.939857,45.9989631 Z M819.698902,46.7342311 C821.26356,46.9847718 822.867767,47.2975791 824.51018,47.6714299 L825.176017,44.7462529 C823.471388,44.3582402 821.803428,44.0330014 820.173234,43.7719669 L819.698902,46.7342311 Z M829.227604,48.8824476 C830.770051,49.3212153 832.341086,49.8081999 833.939598,50.3423273 L834.890347,47.496967 C833.249545,46.9487087 831.635251,46.4483147 830.048426,45.9969232 L829.227604,48.8824476 Z M838.588786,51.9988902 C840.101366,52.5701552 841.634792,53.1796995 843.188075,53.8265451 L844.34138,51.0570891 C842.757634,50.3975576 841.193119,49.7756554 839.648737,49.1923794 L838.588786,51.9988902 Z M847.757056,55.8104864 C849.240527,56.4802454 850.738992,57.1809972 852.251498,57.9117985 L853.556652,55.2105814 C852.021025,54.4686087 850.499013,53.7568455 848.991517,53.0762395 L847.757056,55.8104864 Z M856.71719,60.1355035 C858.173012,60.8814518 859.638945,61.6526655 861.113993,62.4481746 L862.53803,59.8076981 C861.044633,59.0022925 859.560045,58.2212648 858.08523,57.4655843 L856.71719,60.1355035 Z M865.493167,64.8658072 C866.924093,65.673723 868.360565,66.5020464 869.80145,67.3497007 L871.322611,64.7639571 C869.866566,63.9073841 868.414704,63.0701869 866.968137,62.2534399 L865.493167,64.8658072 Z M874.044449,69.8935618 C875.453097,70.7537682 876.862423,71.6298037 878.271,72.5203569 L879.87417,69.9846427 C878.452558,69.0858488 877.030019,68.2015994 875.60796,67.3332038 L874.044449,69.8935618 Z M882.435215,75.1965196 C883.824343,76.1036471 885.208,77.0215356 886.584146,77.948375 L888.260006,75.4601037 C886.872154,74.5253806 885.476646,73.5996297 884.075508,72.6846598 L882.435215,75.1965196 Z M890.747406,80.7328567 C892.21879,81.6724952 893.678961,82.5404943 895.127966,83.3377525 L896.574148,80.709339 C895.182971,79.9438982 893.778945,79.1092748 892.362069,78.2044461 L890.747406,80.7328567 Z M899.716049,85.6437117 C901.317772,86.3715548 902.904678,87.0108581 904.476769,87.562979 L905.47085,84.732466 C903.983337,84.2100493 902.478798,83.6039282 900.957157,82.9124755 L899.716049,85.6437117 Z M909.429707,89.0272376 C911.147603,89.4382303 912.845423,89.7421044 914.52298,89.9410137 L914.876218,86.9618825 C913.315373,86.7768119 911.73265,86.4935377 910.127734,86.1095745 L909.429707,89.0272376 Z M919.700771,90.223147 C921.45738,90.204141 923.187132,90.0663909 924.889656,89.8133384 L924.4486,86.8459372 C922.881099,87.0789208 921.28786,87.2057996 919.668314,87.2233226 L919.700771,90.223147 Z M930.022688,88.6798644 C931.681322,88.1908574 933.307462,87.5893847 934.901046,86.8800309 L933.681059,84.1392953 C932.206838,84.7955171 930.704704,85.3511226 929.174316,85.8023196 L930.022688,88.6798644 Z M939.476473,84.4970042 C940.936394,83.6227294 942.361625,82.6568058 943.752502,81.6041847 L941.942102,79.21202 C940.636103,80.2004048 939.300471,81.1056043 937.935161,81.9232216 L939.476473,84.4970042 Z M947.719745,78.2850007 C948.963319,77.1415837 950.170574,75.9310584 951.342025,74.6587401 L949.135026,72.6267077 C948.018829,73.8390142 946.870253,74.9907021 945.689221,76.0766142 L947.719745,78.2850007 Z M954.663225,70.7694308 C955.716806,69.4418956 956.728188,68.0740505 957.698269,66.6724438 L955.231477,64.9651252 C954.297847,66.3140656 953.325303,67.6293848 952.313343,68.9044769 L954.663225,70.7694308 Z M960.468892,62.397873 C961.372988,60.908047 962.208584,59.4315916 962.981441,57.975668 L960.33164,56.5690576 C959.584955,57.9756774 958.77755,59.4023204 957.904193,60.8414935 L960.468892,62.397873 Z M962.5048,52.1669618 L965.232654,53.4154857 L965.572204,52.6732692 C966.209718,51.3362778 966.776613,50.0297951 967.275119,48.7506033 L964.479875,47.6612863 C964.102713,48.6291035 963.683142,49.6157789 963.219556,50.6236385 L962.5048,52.1669618 Z M968.892029,43.8312294 C969.361665,42.0539138 969.68294,40.3410979 969.858291,38.6951666 L966.875172,38.3773576 C966.716304,39.8685728 966.423093,41.4317707 965.991578,43.0648179 L968.892029,43.8312294 Z M969.893748,33.3481642 C969.699952,31.4702604 969.278519,29.7136754 968.639496,28.0891105 L965.84771,29.1872595 C966.385781,30.555177 966.743421,32.0458656 966.909597,33.6561237 L969.893748,33.3481642 Z M965.874699,23.3723985 C964.723762,21.9724511 963.357627,20.7572194 961.809665,19.7402321 L960.162409,22.2475305 C961.46203,23.1013619 962.601476,24.1149445 963.557315,25.2775847 L965.874699,23.3723985 Z M956.972208,17.4063318 C955.316638,16.8485756 953.567025,16.4703708 951.768348,16.2764234 L951.446729,19.2591338 C953.032097,19.4300805 954.568434,19.7621826 956.014412,20.2493279 L956.972208,17.4063318 Z M946.461781,16.2360787 C944.68599,16.3977615 942.934985,16.7334851 941.256986,17.2354259 L942.116736,20.1095917 C943.601835,19.6653533 945.155934,19.367383 946.733801,19.2237208 L946.461781,16.2360787 Z M936.280562,19.3496089 C934.6664,20.2712007 933.218726,21.3705071 931.978366,22.628863 L934.114908,24.7348508 C935.158145,23.6764787 936.386827,22.743466 937.768022,21.9548847 L936.280562,19.3496089 Z M928.790585,27.1225396 C928.013883,28.7323076 927.493746,30.4863879 927.229799,32.3592002 L930.200441,32.777872 C930.421984,31.2059346 930.853573,29.7504677 931.49252,28.4262053 L928.790585,27.1225396 Z M927.141709,37.708203 C927.302761,39.3816329 927.630874,41.109407 928.120916,42.8753011 L931.011674,42.0731059 C930.567282,40.4717135 930.271774,38.9156304 930.127911,37.4208078 L927.141709,37.708203 Z M929.859067,47.7827598 C930.516156,49.3156748 931.282452,50.8596644 932.152612,52.4040429 L934.766291,50.9313992 C933.948438,49.4798562 933.23022,48.032736 932.616421,46.6008118 L929.859067,47.7827598 Z M934.906931,56.7941537 C935.858998,58.1700169 936.887889,59.5344767 937.988803,60.8803977 L940.310924,58.9809886 C939.260445,57.6967275 938.2799,56.3963821 937.373888,55.0870738 L934.906931,56.7941537 Z M941.415472,64.7636245 C942.573291,65.9831958 943.787804,67.1780837 945.054982,68.3434519 L947.08574,66.1352807 C945.868313,65.0156658 944.702146,63.8683426 943.591161,62.6981024 L941.415472,64.7636245 Z M948.856003,71.621532 C950.166727,72.6818885 951.520448,73.7091635 952.913899,74.7000226 L954.652424,72.2551239 C953.309548,71.3002277 952.005288,70.3104865 950.742838,69.2891831 L948.856003,71.621532 Z M957.149904,77.5224762 C958.583937,78.4166862 960.050999,79.2719644 961.548477,80.0859656 L962.981227,77.4502063 C961.536245,76.6647408 960.120742,75.8395206 958.737269,74.9768385 L957.149904,77.5224762 Z M966.113388,82.3942136 C967.643981,83.1119369 969.199923,83.7867058 970.779146,84.4168419 L971.890956,81.630468 C970.366483,81.0221782 968.864516,80.3708167 967.387065,79.6780126 L966.113388,82.3942136 Z M975.5934,86.174587 C977.19868,86.7074579 978.823285,87.1946005 980.465575,87.6347833 L981.242251,84.7370644 C979.656724,84.3120957 978.088293,83.8417971 976.538535,83.3273567 L975.5934,86.174587 Z M985.45388,88.8152668 C987.10995,89.1559751 988.780449,89.4493741 990.464081,89.6945437 L990.89638,86.7258541 C989.270551,86.4891019 987.657488,86.2057906 986.058419,85.8768091 L985.45388,88.8152668 Z M995.560421,90.2850601 C997.243316,90.4304694 998.936629,90.528095 1000.63934,90.577239 L1000.72589,87.5784878 C999.080563,87.531 997.444507,87.4366755 995.818672,87.2961963 L995.560421,90.2850601 Z M1005.68444,90.58101 C1007.36886,90.5351692 1009.06044,90.4421966 1010.75838,90.3015575 L1010.51073,87.311796 C1008.86806,87.4478575 1007.23185,87.5377872 1005.60283,87.5821203 L1005.68444,90.58101 Z M1015.78814,89.7474399 C1017.45372,89.5185256 1019.12386,89.2439616 1020.79792,88.9233333 L1020.2336,85.976888 C1018.61122,86.2876171 1016.99305,86.5536379 1015.37967,86.7753786 L1015.78814,89.7474399 Z M1025.71162,87.8521629 C1027.34112,87.4538107 1028.97316,87.0119352 1030.60725,86.5262106 L1029.75248,83.65056 C1028.16545,84.1222945 1026.58088,84.5513181 1024.99921,84.9379777 L1025.71162,87.8521629 Z M1035.42752,84.9678306 C1037.00829,84.4155265 1038.59005,83.8222251 1040.17245,83.1876669 L1039.05586,80.4032075 C1037.51537,81.0209593 1035.97597,81.5983682 1034.43801,82.1357171 L1035.42752,84.9678306 Z M1044.84917,81.1925524 C1046.37219,80.503725 1047.89509,79.7766461 1049.41758,79.0111059 L1048.06989,76.3308559 C1046.58408,77.0779537 1045.09833,77.787298 1043.6129,78.4591203 L1044.84917,81.1925524 Z M1053.9007,76.644724 C1055.36061,75.8374548 1056.81959,74.994737 1058.27741,74.1163987 L1056.72921,71.5467562 C1055.3031,72.4059821 1053.87629,73.2301212 1052.44898,74.0193636 L1053.9007,76.644724 Z M1062.58164,71.41712 C1063.97771,70.507078 1065.37229,69.5642483 1066.76521,68.5884877 L1065.04397,66.1313876 C1063.67832,67.08805 1062.3114,68.0121772 1060.94339,68.9039265 L1062.58164,71.41712 Z M1070.87003,65.6137999 C1072.20239,64.6159006 1073.53288,63.5877266 1074.86137,62.5291579 L1072.99183,60.1829219 C1071.6867,61.2228809 1070.37991,62.2327348 1069.07161,63.2126143 L1070.87003,65.6137999 Z M1078.76856,59.3230582 C1080.03959,58.2497581 1081.3085,57.1484766 1082.57519,56.0191114 L1080.57871,53.7798929 C1079.33204,54.8914164 1078.08345,55.975067 1076.83303,57.0309545 L1078.76856,59.3230582 Z M1086.30365,52.6074909 C1087.51588,51.4697094 1088.72584,50.3060406 1089.93343,49.1163968 L1087.82805,46.9792542 C1086.63763,48.1519817 1085.44511,49.2988865 1084.25057,50.4200619 L1086.30365,52.6074909 Z" id="Combined-Shape" fill="#929292" fill-rule="nonzero" opacity="0.498493013"></path>
            </g>
        </g>
    </g>
</svg>
